# xmcd
# Copyright (C) 1995-1998 Ti Kan
#
# Track frame offsets:
#       150
#       13282
#       23392
#       36082
#       50737
#       64767
#       74780
#       84765
#       91952
#       105610
#       119397
#       128102
#       137090
#       146207
#       157250
#       166550
#       174080
#       181042
#       191332
#       199535
#       208465
#       222385
#
# Disc length: 3123 seconds
#
# Revision: 0
# Processed by: cddbd v1.5.2PL0 Copyright (c) Steve Scherf et al.
# Submitted via: CD-Import v1.0
#
DISCID=3a0c3116
DTITLE=West Coast Pop Art Experimental Band - Volume 1
DYEAR=1966
DGENRE=
TTITLE0=Something You Got
TTITLE1=Work Song
TTITLE2=Louie Louie
TTITLE3=Don't Break My Balloon
TTITLE4=You Really Got Me
TTITLE5=Don't Let Anything!! ! Stand In Your Way
TTITLE6=I Won't Hurt You
TTITLE7=If You Want This Love
TTITLE8=Insanity
TTITLE9=It's All Over Now, Baby Blue
TTITLE10=She Belongs To Me
TTITLE11=She Surely Must Know
TTITLE12=Sassafras
TTITLE13=She May Call You Up Tonight
TTITLE14=One Day
TTITLE15=Funny How Love Can Be
TTITLE16=Obviously Bad
TTITLE17=Endless Night
TTITLE18=Tell Me What You Want To Know
TTITLE19=Just You and Me
TTITLE20=Chimes Of Freedom
TTITLE21=Scuse Me Miss Rose
EXTD=
EXTT0=
EXTT1=
EXTT2=
EXTT3=
EXTT4=
EXTT5=
EXTT6=
EXTT7=
EXTT8=
EXTT9=
EXTT10=
EXTT11=
EXTT12=
EXTT13=
EXTT14=
EXTT15=
EXTT16=
EXTT17=
EXTT18=
EXTT19=
EXTT20=
EXTT21=
PLAYORDER=
